<svg width="200" height="200" viewBox="0 0 200 200" fill="none" xmlns="http://www.w3.org/2000/svg">
<path fill-rule="evenodd" clip-rule="evenodd" d="M35.5 143V169H30.5V143H35.5Z" fill="black"/>
<path fill-rule="evenodd" clip-rule="evenodd" d="M67.5 126L67.5 169L62.5 169L62.5 126L67.5 126Z" fill="black"/>
<path fill-rule="evenodd" clip-rule="evenodd" d="M100.5 143L100.5 169L95.5 169L95.5 143L100.5 143Z" fill="black"/>
<path fill-rule="evenodd" clip-rule="evenodd" d="M132.5 114L132.5 169L127.5 169L127.5 114L132.5 114Z" fill="black"/>
<path fill-rule="evenodd" clip-rule="evenodd" d="M164.5 80L164.5 169L159.5 169L159.5 80L164.5 80Z" fill="black"/>
<path fill-rule="evenodd" clip-rule="evenodd" d="M127.5 43H159.036L91 111.036L62.5 82.5355L35.7678 109.268L32.2322 105.732L62.5 75.4645L91 103.964L146.964 48H127.5V43Z" fill="#800080"/>
</svg>
