<svg width="200" height="200" viewBox="0 0 200 200" fill="none" xmlns="http://www.w3.org/2000/svg">
<path fill-rule="evenodd" clip-rule="evenodd" d="M105 57H78V64H105V57ZM78 52C75.2386 52 73 54.2386 73 57V69H110V57C110 54.2386 107.761 52 105 52H78Z" fill="black"/>
<path fill-rule="evenodd" clip-rule="evenodd" d="M71 88H66V93V159C66 164.523 70.4772 169 76 169H107C112.523 169 117 164.523 117 159V93V88H112V93V97V159C112 161.761 109.761 164 107 164H76C73.2386 164 71 161.761 71 159V97V93V88Z" fill="black"/>
<path fill-rule="evenodd" clip-rule="evenodd" d="M71 87.4533L78.3408 67.8778L73.6592 66.1222L66 86.5467V88.5H71V87.4533Z" fill="black"/>
<path fill-rule="evenodd" clip-rule="evenodd" d="M112 87.4533L104.659 67.8778L109.341 66.1222L117 86.5467V88.5H112V87.4533Z" fill="black"/>
<path fill-rule="evenodd" clip-rule="evenodd" d="M103 108.5H71V103.5H103V108.5Z" fill="#800080"/>
<path fill-rule="evenodd" clip-rule="evenodd" d="M112 141.5H80V136.5H112V141.5Z" fill="#800080"/>
<path fill-rule="evenodd" clip-rule="evenodd" d="M145 78C153.284 78 160 71.2843 160 63C160 61.0993 159.413 58.3942 158.173 55.059C156.96 51.7962 155.242 48.244 153.271 44.7534C150.584 39.9939 147.581 35.6156 145 32.418C142.419 35.6156 139.416 39.9939 136.729 44.7534C134.758 48.244 133.04 51.7962 131.827 55.059C130.587 58.3942 130 61.0993 130 63C130 71.2843 136.716 78 145 78ZM141.606 28.6713C134.478 37.2779 125 53.5687 125 63C125 74.0457 133.954 83 145 83C156.046 83 165 74.0457 165 63C165 53.5687 155.522 37.2779 148.394 28.6713C148.353 28.621 148.311 28.571 148.27 28.5213C147.096 27.1133 145.988 25.9176 145 25C144.012 25.9176 142.904 27.1133 141.73 28.5213C141.689 28.571 141.647 28.621 141.606 28.6713Z" fill="black"/>
<path fill-rule="evenodd" clip-rule="evenodd" d="M144.768 52.2322C145.744 53.2085 145.744 54.7915 144.768 55.7678C143.934 56.6012 142.834 58.6496 141.985 61.0759C141.581 62.2301 141.274 63.3553 141.099 64.3002C141.011 64.7722 140.961 65.1714 140.943 65.4887C140.934 65.6459 140.934 65.7704 140.938 65.8644C140.94 65.9108 140.943 65.9462 140.946 65.9717C140.948 65.9843 140.949 65.9937 140.95 66.0002C140.951 66.0068 140.951 66.0098 140.951 66.0097C141.222 67.3636 140.344 68.6807 138.99 68.9515C137.636 69.2222 136.319 68.3442 136.049 66.9903C135.826 65.8769 135.967 64.5481 136.183 63.3873C136.413 62.1447 136.794 60.7699 137.265 59.4241C138.166 56.8504 139.566 53.8988 141.232 52.2322C142.209 51.2559 143.791 51.2559 144.768 52.2322Z" fill="black"/>
</svg>
