<svg width="200" height="200" viewBox="0 0 200 200" fill="none" xmlns="http://www.w3.org/2000/svg">
<path fill-rule="evenodd" clip-rule="evenodd" d="M167.5 168.5H35.5V163.5H167.5V168.5Z" fill="black"/>
<path fill-rule="evenodd" clip-rule="evenodd" d="M147 155.5L54 155.5L54 150.5L147 150.5L147 155.5Z" fill="black"/>
<path fill-rule="evenodd" clip-rule="evenodd" d="M59.5 89L59.5 140L54.5 140L54.5 89L59.5 89Z" fill="black"/>
<path fill-rule="evenodd" clip-rule="evenodd" d="M88.5 89L88.5 140L83.5 140L83.5 89L88.5 89Z" fill="black"/>
<path fill-rule="evenodd" clip-rule="evenodd" d="M117.5 89L117.5 140L112.5 140L112.5 89L117.5 89Z" fill="black"/>
<path fill-rule="evenodd" clip-rule="evenodd" d="M146.5 89L146.5 140L141.5 140L141.5 89L146.5 89Z" fill="black"/>
<path fill-rule="evenodd" clip-rule="evenodd" d="M100.007 21.6254L162.458 78.5H36.9993L100.007 21.6254ZM50.0006 73.5H149.542L99.9925 28.3746L50.0006 73.5Z" fill="#800080"/>
</svg>
