<?xml version="1.0" encoding="utf-8"?>
<!-- Generator: Adobe Illustrator 26.1.0, SVG Export Plug-In . SVG Version: 6.00 Build 0)  -->
<svg version="1.1" id="Layer_1" xmlns="http://www.w3.org/2000/svg" xmlns:xlink="http://www.w3.org/1999/xlink" x="0px" y="0px"
	 viewBox="0 0 198 22" style="enable-background:new 0 0 198 22;" xml:space="preserve">
<style type="text/css">
	.st0{fill:#FFFFFF;}
</style>
<g>
	<path class="st0" d="M8.6,1.3H0.8v2.4h0.8c0-0.6,0.5-1.1,1.3-1.1h5.8v16c0,0.7-0.7,1.3-1.5,1.3l0,0.8l1.6,0h3.7h1.6l0-0.8
		c-0.9,0-1.5-0.6-1.5-1.3v-16l5.8,0c0.7,0,1.3,0.5,1.3,1l0.8,0V1.3l-7.9,0L8.6,1.3z"/>
	<path class="st0" d="M43.6,17.1c0,0.6,0,1,0.1,1.2c0,0.3,0.1,0.5,0.2,0.7c0.1,0.2,0.2,0.3,0.3,0.4c0.1,0.1,0.3,0.2,0.5,0.3
		c0.2,0.1,0.2,0.2,0.7,0.3v0.7l-6.9,0V20c0.6-0.1,0.8-0.3,1.1-0.4c0.3-0.2,0.4-0.4,0.5-0.7c0.2-0.3,0.2-0.9,0.2-1.7v-5.9l-10,0v5.9
		c0,0.6,0,1.1,0.1,1.4c0.1,0.3,0.1,0.5,0.2,0.7c0.2,0.2,0.4,0.3,0.6,0.4c0.2,0.1,0.4,0.2,1,0.3l-0.1,0.7l-7.1,0V20
		c0.7-0.2,1-0.3,1.3-0.5c0.2-0.2,0.4-0.5,0.5-0.8c0.1-0.4,0.1-0.9,0.1-1.6V4.9c0-0.7,0-1.1-0.1-1.5c-0.1-0.3-0.2-0.5-0.3-0.7
		c-0.2-0.2-0.3-0.3-0.6-0.4c-0.2-0.1-0.4-0.2-1-0.3V1.3l7.2,0L32.1,2c-0.5,0.1-0.7,0.3-0.9,0.3c-0.2,0.1-0.4,0.3-0.5,0.4
		c-0.2,0.2-0.2,0.4-0.3,0.7c-0.1,0.3-0.1,0.8,0,1.5l0,5h10l0-5c0-0.8,0-1.4-0.1-1.7c-0.1-0.3-0.3-0.5-0.5-0.7
		c-0.2-0.1-0.5-0.3-1.2-0.4V1.3h6.9V2c-0.7,0.2-0.8,0.3-1,0.5c-0.3,0.2-0.5,0.4-0.6,0.7c-0.1,0.3-0.1,0.9-0.1,1.7V17.1z"/>
	<path class="st0" d="M66.4,1.3v4.3h-1.7c-0.2-0.5-0.4-0.9-0.6-1.2c-0.2-0.3-0.4-0.6-0.6-0.9C63.3,3.3,63,3,62.8,2.9
		c-0.3-0.2-0.5-0.3-0.9-0.3c-0.3,0-0.7-0.1-1.2-0.1h-5.7V10l3.8,0c0.5,0,0.9-0.1,1.2-0.2c0.3-0.1,0.5-0.3,0.8-0.6
		c0.2-0.3,0.4-0.4,0.6-1l1.2,0l0,4.7h-1.2c-0.2-0.6-0.4-0.6-0.6-0.9c-0.2-0.3-0.5-0.5-0.7-0.6c-0.3-0.1-0.7-0.2-1.3-0.2l-3.8,0v8.2
		l5.6,0c0.6,0,1.1,0,1.5-0.1c0.3-0.1,0.7-0.2,0.9-0.4c0.2-0.2,0.5-0.5,0.7-0.8c0.2-0.3,0.4-0.6,0.6-1c0.1-0.3,0.3-0.8,0.6-1.5l1.8,0
		l-0.3,5H50.1V20c0.7-0.2,0.8-0.3,1-0.5c0.2-0.2,0.4-0.5,0.5-0.8c0.1-0.3,0.1-0.9,0.1-1.6V4.9c0-0.6-0.1-1.1-0.1-1.5
		c-0.1-0.3-0.2-0.5-0.3-0.7c-0.1-0.2-0.3-0.3-0.5-0.4c-0.2-0.1-0.2-0.2-0.7-0.3l0-0.7L66.4,1.3z"/>
	<path class="st0" d="M119,18.5l-4.6-7.5c2.9-0.1,4.6-2.1,4.6-4.8c0-2.7-1.7-5-5.4-5h-11.2v0.8c0.8,0,1.5,0.6,1.5,1.3v15.2
		c0,0.7-0.6,1.3-1.5,1.3v0.8l5,0V2.6h4.9c2.8,0,3.2,1.7,3.2,3.9c0,2-0.8,3.6-3.7,3.6l-1.2,0l6.3,10.6l4.6,0v-0.8
		C120,19.9,119.3,19.1,119,18.5"/>
	<path class="st0" d="M153,1h-1.1v0.8c0.9,0,1.6,0.6,1.6,1.3v13.1c0,3.6,3.9,4.7,7.8,4.7c3.9,0,8.2-1.1,8.2-4.7V3.1
		c0-0.7,0.7-1.3,1.6-1.3l0-0.8h-1.6h-3.7l-1.6,0v0.8c0.9,0,1.6,0.6,1.6,1.3l0,13.1c0,2-2,3.6-4.5,3.6c-2.5,0-4.5-1.6-4.5-3.7V3.1
		c0-0.7,0.7-1.3,1.6-1.3l0-0.8h-1.6L153,1z"/>
	<path class="st0" d="M145.8,18.9L137,1.2l-4.7,0l0,0.8c1.4,0,1.9,0.9,2.3,1.4l0,0l0.1,0.2l-7,15.4c-0.2,0.5-0.9,1.2-2.3,1.2v0.7
		h0.8h2.1h1.2l0.1,0l1.5,0v-0.7c-0.8,0-0.9-0.5-0.6-1.2v0l2.4-5.2l6.8,0l2.6,5.2c0.3,0.7,0.2,1.2-0.6,1.2l0,0.7l1.5,0h0.7l0.5,0h2.8
		l0.8,0l0-0.7C146.7,20.1,146,19.4,145.8,18.9 M133.4,12.5l2.7-5.9l3,5.9L133.4,12.5z"/>
	<path class="st0" d="M197.2,2.1l0-0.8l-3.6,0l-7,15.1L179,1.3l-3.1,0l0,0.8c0.8,0,1.4,0.5,1.6,1.1v15.3c0,0.7-0.7,1.3-1.6,1.3
		l0,0.8l2.3,0h1.6l1.6,0v-0.8c-0.9,0-1.6-0.6-1.6-1.3l0-8.5l5.3,10.6l1.5,0l5.5-12.1l0,10c0,0.7-0.7,1.3-1.6,1.3l0,0.8l1.6,0l0.3,0
		l1,0h2.2l1.6,0v-0.8c-0.9,0-1.6-0.6-1.6-1.3l0-15.2C195.6,2.7,196.3,2.1,197.2,2.1"/>
	<path class="st0" d="M85.8,1.2h-8v2.4h0.8c0-0.6,0.5-1.1,1.3-1.1h5.9v16.2c0,0.7-0.7,1.3-1.6,1.3l0,0.8l1.6,0h3.8h1.6l0-0.8
		c-0.9,0-1.6-0.6-1.6-1.3V2.5l5.9,0c0.7,0,1.3,0.5,1.3,1.1l0.8,0V1.2l-8,0L85.8,1.2z"/>
</g>
</svg>
