<svg width="237" height="22" viewBox="0 0 237 22" fill="none" xmlns="http://www.w3.org/2000/svg">
<g clip-path="url(#clip0_803_16763)">
<path d="M22.6084 14.2979H0V22H22.6084V14.2979Z" fill="#752769"/>
<path d="M22.6084 0H0V14.2979H22.6084V0Z" fill="#F2BB28"/>
<path d="M45.61 1.24058H37.8809V3.61323H38.6617C38.667 3.46153 38.7038 3.31242 38.7697 3.17488C38.8357 3.03734 38.9296 2.91419 39.0457 2.81281C39.1617 2.71144 39.2977 2.63392 39.4453 2.58493C39.5929 2.53593 39.7492 2.51647 39.9048 2.5277H45.61V18.6142C45.5986 18.7969 45.5499 18.9757 45.4668 19.14C45.3837 19.3042 45.2678 19.4508 45.1259 19.5711C44.984 19.6913 44.8189 19.7829 44.6403 19.8405C44.4617 19.8981 44.273 19.9205 44.0854 19.9065L44.0482 20.7335H50.8424L50.8159 19.9065C50.4384 19.9306 50.0665 19.8081 49.7818 19.5659C49.497 19.3236 49.3225 18.9814 49.2966 18.6142V2.5277L55.0071 2.55871C55.3103 2.54141 55.6085 2.63966 55.8386 2.83264C56.0686 3.02562 56.2124 3.29817 56.2395 3.59254H57.0523V1.21472H49.2966L45.61 1.24058Z" fill="#241916"/>
<path d="M80.4467 17.1461C80.4203 17.5576 80.4453 17.9707 80.5211 18.3764C80.5118 18.6174 80.5687 18.8565 80.6857 19.0691C80.7461 19.2311 80.853 19.3728 80.9938 19.4774C81.1213 19.5756 81.2754 19.6273 81.4772 19.7514C81.697 19.8648 81.9262 19.9599 82.1625 20.0357V20.7335H75.3683V20.0202C75.7464 19.9335 76.106 19.7831 76.4307 19.5756C76.567 19.4949 76.6846 19.3875 76.7761 19.2603C76.8675 19.133 76.9308 18.9887 76.9619 18.8364C77.1338 18.2896 77.1951 17.7156 77.1425 17.1461V11.1861H67.2939V17.1254C67.2797 17.5987 67.3045 18.0724 67.3683 18.5418C67.4204 18.7779 67.497 19.0082 67.5967 19.2293C67.7661 19.4046 67.9656 19.5498 68.1863 19.6583C68.4989 19.8283 68.8381 19.947 69.1903 20.0098L69.1425 20.7232H62.104V20.0098C62.5598 19.9106 62.9946 19.7358 63.3895 19.4929C63.6192 19.2798 63.7814 19.0072 63.8569 18.7072C63.945 18.1811 63.9788 17.6478 63.9579 17.1151V4.81248C63.9799 4.32616 63.946 3.83895 63.8569 3.35993C63.8115 3.12116 63.7196 2.89306 63.586 2.68794C63.4384 2.52572 63.2574 2.39542 63.0548 2.30543C62.759 2.13717 62.4355 2.01999 62.0986 1.95909V1.25092H69.1903L69.1425 1.93325C68.8332 2.02591 68.5299 2.13637 68.2341 2.26407C68.003 2.35428 67.8009 2.50296 67.6486 2.69473C67.4964 2.88649 67.3996 3.11438 67.3683 3.35477C67.3042 3.84151 67.2882 4.3331 67.3205 4.82282L67.2939 9.87827H77.0947V4.82282C77.128 4.25706 77.0906 3.68947 76.9832 3.1325C76.8654 2.8504 76.6839 2.59773 76.452 2.3933C76.0996 2.18123 75.711 2.03243 75.3046 1.95393V1.26125H82.1359V1.95393C81.7525 2.00571 81.3936 2.1677 81.1054 2.41915C80.8245 2.58803 80.6168 2.85089 80.5211 3.15834C80.4406 3.7078 80.4068 4.26278 80.4201 4.81764L80.4467 17.1461Z" fill="#241916"/>
<path d="M103.289 1.25093V5.53101H101.583C101.424 5.11679 101.234 4.71428 101.015 4.3266C100.843 4.01387 100.638 3.71936 100.404 3.44783C100.219 3.2332 100.003 3.04676 99.7613 2.89473C99.4981 2.72787 99.2009 2.61853 98.8901 2.57424C98.5026 2.52317 98.1124 2.49384 97.7214 2.48637H92.1225V9.98683L95.9153 10.0127C96.3311 9.98586 96.7425 9.91479 97.1424 9.80075C97.4483 9.67609 97.7091 9.46552 97.8914 9.19595C98.1347 8.91258 98.3155 8.58356 98.4226 8.22932L99.57 8.25516V12.9539H98.4333C98.3188 12.6152 98.1384 12.3011 97.902 12.0287C97.7155 11.7714 97.4676 11.5621 97.1796 11.4187C96.7765 11.2837 96.3521 11.2189 95.9259 11.2274L92.1331 11.2533V19.4568L97.6364 19.4309C98.1191 19.4424 98.6016 19.4043 99.076 19.3172C99.3947 19.2307 99.6976 19.0964 99.9738 18.9192C100.243 18.7024 100.466 18.4353 100.627 18.1335C100.847 17.8245 101.035 17.4956 101.19 17.1513C101.328 16.8308 101.482 16.3294 101.721 15.6781H103.48L103.145 20.6974H87.1875V19.984C87.5679 19.9094 87.9182 19.73 88.1968 19.4671C88.4505 19.2651 88.6204 18.9804 88.6749 18.6659C88.7688 18.1539 88.8185 17.6352 88.8236 17.1151V4.8125C88.8265 4.32639 88.791 3.84077 88.7174 3.35995C88.6672 3.1165 88.5619 2.88696 88.4093 2.68796C88.2668 2.51526 88.0849 2.37722 87.8781 2.28477C87.639 2.18655 87.7293 2.10384 87.2034 1.9436V1.2406L103.289 1.25093Z" fill="#241916"/>
<path d="M159.432 18.547L154.907 11.0414C157.759 10.8915 159.432 8.92717 159.432 6.2547C159.432 3.58224 157.764 1.22511 154.12 1.24062H143.061V2.04701C143.245 2.03727 143.429 2.06322 143.603 2.12337C143.776 2.18352 143.936 2.27665 144.072 2.39737C144.209 2.51808 144.319 2.66398 144.397 2.82656C144.475 2.98915 144.519 3.16518 144.527 3.34446V18.5987C144.519 18.7775 144.474 18.953 144.396 19.115C144.317 19.277 144.207 19.4223 144.071 19.5424C143.934 19.6626 143.775 19.7553 143.601 19.8151C143.428 19.8749 143.244 19.9007 143.061 19.891V20.7336H148.027V2.5174H152.861C155.608 2.5174 155.99 4.18704 155.99 6.4408C155.99 8.46712 155.204 10.0592 152.33 10.0592H151.188L157.361 20.7336H161.881V19.891C161.379 19.9237 160.878 19.8142 160.439 19.5757C160 19.3371 159.641 18.9798 159.406 18.547" fill="#241916"/>
<path d="M193.059 1.24576H191.996V2.05215C192.186 2.03804 192.376 2.06044 192.557 2.11804C192.737 2.17564 192.904 2.26733 193.048 2.38784C193.192 2.50836 193.311 2.65533 193.396 2.82036C193.482 2.9854 193.533 3.16525 193.547 3.34962V16.3553C193.547 19.9478 197.383 21.1471 201.202 21.1471C205.021 21.1471 209.271 19.9375 209.271 16.3553V3.34962C209.285 3.16525 209.337 2.9854 209.422 2.82036C209.508 2.65533 209.626 2.50836 209.77 2.38784C209.914 2.26733 210.081 2.17564 210.262 2.11804C210.442 2.06044 210.633 2.03804 210.822 2.05215V1.24576H204.055V2.05732C204.244 2.04395 204.434 2.06705 204.615 2.1253C204.795 2.18354 204.961 2.2758 205.105 2.39679C205.249 2.51777 205.366 2.66511 205.451 2.83038C205.536 2.99565 205.587 3.1756 205.6 3.35995V16.3553C205.6 18.3712 203.635 19.9737 201.181 19.9737C198.727 19.9737 196.697 18.3764 196.697 16.3553V3.34444C196.714 3.15748 196.769 2.97559 196.858 2.80924C196.947 2.6429 197.069 2.49539 197.217 2.37525C197.366 2.25511 197.537 2.16471 197.721 2.10925C197.905 2.0538 198.099 2.03439 198.291 2.05215V1.2406H193.059V1.24576Z" fill="#241916"/>
<path d="M186.2 18.8365L177.515 1.26129H172.851V2.04184C173.319 2.0415 173.778 2.17183 174.172 2.41737C174.567 2.6629 174.881 3.01335 175.077 3.42718V3.42718L175.157 3.57709L168.288 18.821C168.07 19.3379 167.358 19.9996 166.036 20.0099V20.7491H171.651V19.9737C170.896 19.9737 170.763 19.4568 171.087 18.7848L173.419 13.6156H180.092L182.657 18.7848C182.987 19.4361 182.843 19.9582 182.094 19.9582V20.7181H188.432V19.9737C187.104 19.9737 186.402 19.3224 186.174 18.8261L186.2 18.8365ZM173.956 12.4732L176.612 6.59071L179.528 12.4784L173.956 12.4732Z" fill="#241916"/>
<path d="M236.99 2.05212V1.24573H233.43L226.525 16.4379L219.05 1.24573H216.001V2.05212C216.349 2.03205 216.693 2.13049 216.974 2.33048C217.255 2.53048 217.456 2.81956 217.542 3.148V18.5625C217.511 18.9451 217.326 19.3006 217.028 19.552C216.73 19.8034 216.342 19.9307 215.948 19.9064V20.7335H221.361V19.9168C221.168 19.9331 220.974 19.9121 220.789 19.8552C220.605 19.7982 220.433 19.7064 220.285 19.5849C220.137 19.4634 220.015 19.3146 219.927 19.1472C219.838 18.9797 219.784 18.7968 219.768 18.609V10.1005L224.963 20.7335H226.493L231.911 8.53944V18.609C231.895 18.7964 231.841 18.9789 231.752 19.1458C231.663 19.3127 231.541 19.4608 231.393 19.5815C231.245 19.7022 231.073 19.7931 230.889 19.8488C230.704 19.9046 230.51 19.9242 230.318 19.9064V20.7335H236.99V19.9064C236.602 19.9395 236.216 19.8214 235.917 19.5782C235.618 19.335 235.431 18.9865 235.396 18.609V3.34958C235.411 3.16192 235.465 2.9791 235.554 2.81183C235.642 2.64455 235.764 2.49617 235.913 2.37536C236.061 2.25456 236.233 2.16375 236.418 2.10824C236.603 2.05274 236.797 2.03366 236.99 2.05212" fill="#241916"/>
<path d="M126.46 1.24058H118.736V3.61323H119.517C119.522 3.46176 119.558 3.31278 119.623 3.17526C119.689 3.03774 119.782 2.91453 119.898 2.81308C120.013 2.71164 120.149 2.63406 120.296 2.58501C120.444 2.53596 120.6 2.51646 120.755 2.5277H126.46V18.6142C126.449 18.7969 126.4 18.9757 126.317 19.14C126.234 19.3042 126.118 19.4508 125.976 19.5711C125.834 19.6913 125.669 19.7829 125.49 19.8405C125.312 19.8981 125.123 19.9205 124.936 19.9065L124.898 20.7335H131.698L131.671 19.9065C131.293 19.9306 130.921 19.8083 130.635 19.5662C130.35 19.3241 130.174 18.9818 130.147 18.6142V2.5277L135.863 2.55871C136.166 2.54141 136.464 2.63966 136.694 2.83264C136.924 3.02562 137.068 3.29817 137.095 3.59254H137.902V1.21472H130.147L126.46 1.24058Z" fill="#241916"/>
</g>
<defs>
<clipPath id="clip0_803_16763">
<rect width="237" height="22" fill="white"/>
</clipPath>
</defs>
</svg>
