<svg width="76" height="77" viewBox="0 0 76 77" fill="none" xmlns="http://www.w3.org/2000/svg">
<path d="M56.4646 26.1431L27.9614 41.9688L29.4984 44.737L58.0016 28.9114L56.4646 26.1431Z" fill="white"/>
<path d="M30.0714 29.2312L27.4434 30.9727L43.1426 54.6642L45.7707 52.9227L30.0714 29.2312Z" fill="white"/>
<path d="M39.5831 0H36.4167V7.91663H39.5831V0Z" fill="white" fill-opacity="0.52"/>
<path d="M39.5833 68.0859H36.417V76.0026H39.5833V68.0859Z" fill="white" fill-opacity="0.52"/>
<path d="M76.0001 36.4141H68.0835V39.5804H76.0001V36.4141Z" fill="white" fill-opacity="0.52"/>
<path d="M7.91663 36.4141H0V39.5804H7.91663V36.4141Z" fill="white" fill-opacity="0.52"/>
<path d="M12.2497 9.99932L10.0107 12.2383L15.6098 17.8373L17.8487 15.5983L12.2497 9.99932Z" fill="white" fill-opacity="0.52"/>
<path d="M60.3898 58.1595L58.1509 60.3984L63.7499 65.9974L65.9889 63.7585L60.3898 58.1595Z" fill="white" fill-opacity="0.52"/>
<path d="M63.7509 10.0065L58.1519 15.6055L60.3908 17.8444L65.9898 12.2454L63.7509 10.0065Z" fill="white" fill-opacity="0.52"/>
<path d="M15.6093 58.1471L10.0103 63.7461L12.2492 65.985L17.8482 60.386L15.6093 58.1471Z" fill="white" fill-opacity="0.52"/>
</svg>
