<svg width="60" height="85" viewBox="0 0 60 85" fill="none" xmlns="http://www.w3.org/2000/svg">
<circle cx="25.0032" cy="33.376" r="23.5" stroke="white" stroke-width="3"/>
<circle cx="25.0032" cy="33.376" r="6.5" stroke="white" stroke-width="3"/>
<path fill-rule="evenodd" clip-rule="evenodd" d="M47.2108 8.97584C44.5788 6.3951 41.5147 4.27144 38.1418 2.72792L39.3902 0C43.0847 1.6907 46.4359 4.01447 49.3111 6.83378C55.9006 13.295 59.9976 22.367 59.9976 32.405C59.9976 50.9708 45.9767 66.2458 28.0718 67.7935V81.0046H42.9783V84.0046H9.55305V81.0046H25.0718V67.9225C15.2307 67.9224 6.34269 63.7813 0 57.131L2.17094 55.0605C7.97705 61.1482 16.093 64.9225 25.0723 64.9225C42.6794 64.9225 56.9976 50.3889 56.9976 32.405C56.9976 23.1975 53.2426 14.8903 47.2108 8.97584Z" fill="white" fill-opacity="0.5"/>
</svg>
