<svg width="200" height="200" viewBox="0 0 200 200" fill="none" xmlns="http://www.w3.org/2000/svg">
<path fill-rule="evenodd" clip-rule="evenodd" d="M30 24H135V170H130.484V27.6049H34.5161V170H30V24Z" fill="black"/>
<path fill-rule="evenodd" clip-rule="evenodd" d="M175.636 71.8131H132V68H180V170H175.636V71.8131Z" fill="black"/>
<path fill-rule="evenodd" clip-rule="evenodd" d="M73 51.5H48V47.5H73V51.5Z" fill="#800080"/>
<path fill-rule="evenodd" clip-rule="evenodd" d="M73 71H48V67H73V71Z" fill="#800080"/>
<path fill-rule="evenodd" clip-rule="evenodd" d="M73 109H48V105H73V109Z" fill="#800080"/>
<path fill-rule="evenodd" clip-rule="evenodd" d="M73 128H48V124H73V128Z" fill="#800080"/>
<path fill-rule="evenodd" clip-rule="evenodd" d="M115 128H90V124H115V128Z" fill="#800080"/>
<path fill-rule="evenodd" clip-rule="evenodd" d="M115 90H90V86H115V90Z" fill="#800080"/>
<path fill-rule="evenodd" clip-rule="evenodd" d="M73 148H48V144H73V148Z" fill="#800080"/>
</svg>
