<svg width="40" height="40" viewBox="0 0 40 40" fill="none" xmlns="http://www.w3.org/2000/svg">
<circle cx="20" cy="20" r="20" fill="white"/>
<path fill-rule="evenodd" clip-rule="evenodd" d="M31.0608 15.1532C30.6236 13.5132 29.8075 12.8818 28.3036 12.6551C27.4408 12.5351 23.2865 12.3809 19.9875 12.3809C16.6894 12.3809 12.5351 12.5351 11.6722 12.6551C10.1703 12.8818 9.35031 13.5161 8.91888 15.1532C8.77031 15.6999 8.57031 18.7161 8.57031 19.8637V20.117C8.57031 21.2675 8.77031 24.2818 8.91888 24.8304C9.35031 26.4675 10.1703 27.098 11.6722 27.3247C12.5351 27.4456 16.6941 27.597 19.9951 27.597L19.9808 27.5999C23.2817 27.5999 27.4398 27.4456 28.3036 27.3247C29.8075 27.098 30.6236 26.4675 31.0608 24.8304C31.2046 24.2818 31.4056 21.2675 31.4056 20.117V19.8637C31.4056 18.7161 31.2046 15.6999 31.0608 15.1532ZM17.2494 22.7409V17.239L22.7246 19.9266L17.2494 22.7409Z" fill="black"/>
</svg>
